<svg width="104" height="40" viewBox="0 0 104 40" fill="none" xmlns="http://www.w3.org/2000/svg">
<path fill-rule="evenodd" clip-rule="evenodd" d="M41.1281 27.51C42.1328 25.1908 42.6863 22.6555 42.6863 20C42.6863 8.96166 33.1228 0 21.3431 0C9.5635 0 0 8.96166 0 20C0 31.0383 9.5635 40 21.3431 40C27.3737 40 32.8234 37.6513 36.7064 33.8775H14.9179C13.9315 33.8775 12.8675 33.7149 11.7259 33.3897C10.5842 33.0645 9.52477 32.5382 8.54753 31.8107C7.57023 31.0832 6.75279 30.1332 6.09519 28.9607C5.4376 27.7882 5.1088 26.3632 5.1088 24.6857V15.3143C5.1088 14.39 5.28235 13.3929 5.62945 12.3231C5.97649 11.2533 6.53817 10.2605 7.3145 9.34473C8.09082 8.42899 9.10461 7.66302 10.3559 7.0468C11.6071 6.43059 13.1278 6.12249 14.9179 6.12249H27.7684C28.7548 6.12249 29.8188 6.28509 30.9604 6.61029C32.1021 6.93549 33.1615 7.46183 34.1388 8.18929C35.1161 8.91676 35.9335 9.86675 36.5911 11.0393C37.2487 12.2118 37.5775 13.6368 37.5775 15.3143C37.5775 16.2386 37.4039 17.2356 37.0568 18.3054C36.7098 19.3752 36.1481 20.368 35.3718 21.2837C34.5955 22.1995 33.5817 22.9655 32.3304 23.5817C31.0792 24.198 29.5585 24.5061 27.7684 24.5061H14.9179V18.1642H27.7684C28.7365 18.1642 29.4854 17.8861 30.0151 17.3298C30.5449 16.7734 30.8098 16.0845 30.8098 15.2629C30.8098 14.3899 30.5129 13.7053 29.9193 13.2089C29.3256 12.7124 28.6086 12.4642 27.7684 12.4642H14.9179C13.9498 12.4642 13.2009 12.7424 12.6712 13.2988C12.1414 13.855 11.8765 14.544 11.8765 15.3656V24.6857C11.8765 25.5759 12.1734 26.2691 12.767 26.7655C13.3607 27.2619 14.0959 27.51 14.9727 27.51H41.1281Z" fill="white"/>
<path d="M45.9148 33.7326H42.6863L44.2908 18.1714H49.9165L51.5017 33.7326H48.3505L48.1186 31.2146H46.1081L45.9148 33.7326ZM46.978 20.8163L46.3593 28.7328H47.8673L47.1326 20.8163H46.978ZM52.507 33.7326V18.1714H57.0113C58.2228 18.1714 59.1025 18.4492 59.6502 19.0047C60.1979 19.5602 60.4718 20.466 60.4718 21.7221V22.4105C60.4718 23.8959 59.9047 24.7836 58.7706 25.0734C59.4666 25.2425 59.9563 25.635 60.2398 26.251C60.5233 26.8668 60.6651 27.682 60.6651 28.6965C60.6651 30.3511 60.4009 31.6041 59.8725 32.4555C59.3441 33.3069 58.3903 33.7326 57.0113 33.7326H52.507ZM55.7547 24.0227H56.4314C56.7149 24.0227 56.9082 23.9231 57.0113 23.7238C57.1145 23.5245 57.166 23.2437 57.166 22.8814V21.3235C57.166 20.8163 56.9276 20.5627 56.4507 20.5627H55.7547V24.0227ZM56.0834 30.9972C56.9469 30.9972 57.3787 30.6107 57.3787 29.8378V27.8994C57.3787 27.4284 57.3046 27.0722 57.1563 26.8306C57.0081 26.5891 56.7472 26.4683 56.3734 26.4683H55.7547V30.9791L56.0834 30.9972ZM65.7108 33.8775C64.2029 33.8775 63.1138 33.5273 62.4437 32.8269C61.7735 32.1264 61.4384 30.9972 61.4384 29.4393V27.9175H64.7055V29.8559C64.7055 30.6288 64.9697 31.0153 65.4981 31.0153C65.7946 31.0153 66.0008 30.9338 66.1168 30.7707C66.2328 30.6077 66.2907 30.3329 66.2907 29.9465C66.2907 29.4393 66.2263 29.0196 66.0974 28.6875C65.9685 28.3554 65.8042 28.0776 65.6045 27.8541C65.4047 27.6307 65.047 27.2835 64.5316 26.8125L63.101 25.472C61.9926 24.4575 61.4384 23.3344 61.4384 22.1025C61.4384 20.774 61.7638 19.7626 62.4147 19.0681C63.0655 18.3737 64.016 18.0265 65.2662 18.0265C66.7612 18.0265 67.8374 18.3978 68.4947 19.1406C69.1519 19.8833 69.4805 21.0457 69.4805 22.6278H66.0974L66.0781 21.559C66.0781 21.3537 66.0169 21.1907 65.8944 21.0699C65.772 20.9491 65.6013 20.8887 65.3822 20.8887C65.1244 20.8887 64.9311 20.9551 64.8022 21.088C64.6733 21.2209 64.6089 21.402 64.6089 21.6315C64.6089 22.1387 64.9182 22.664 65.5368 23.2076L67.47 24.9466C67.9211 25.3573 68.2948 25.7467 68.5913 26.115C68.8877 26.4834 69.1262 26.9181 69.3066 27.4193C69.487 27.9206 69.5772 28.5154 69.5772 29.2037C69.5772 30.7375 69.2776 31.8999 68.6782 32.691C68.079 33.482 67.0899 33.8775 65.7108 33.8775ZM77.542 33.7326H70.6792V18.1714H77.3294V21.1786H74.0623V24.2039H77.1941V27.1386H74.0623V30.7073H77.542V33.7326ZM81.8918 33.7326H78.644V18.1714H82.0657L83.5929 25.6168V18.1714H86.8021V33.7326H83.5543L81.8918 25.943V33.7326ZM92.2151 33.8775C90.7072 33.8775 89.6181 33.5273 88.9479 32.8269C88.2778 32.1264 87.9427 30.9972 87.9427 29.4393V27.9175H91.2098V29.8559C91.2098 30.6288 91.474 31.0153 92.0024 31.0153C92.2988 31.0153 92.5051 30.9338 92.6211 30.7707C92.737 30.6077 92.795 30.3329 92.795 29.9465C92.795 29.4393 92.7306 29.0196 92.6017 28.6875C92.4728 28.3554 92.3085 28.0776 92.1088 27.8541C91.909 27.6307 91.5513 27.2835 91.0358 26.8125L89.6052 25.472C88.4969 24.4575 87.9427 23.3344 87.9427 22.1025C87.9427 20.774 88.2681 19.7626 88.919 19.0681C89.5698 18.3737 90.5203 18.0265 91.7705 18.0265C93.2655 18.0265 94.3416 18.3978 94.9989 19.1406C95.6562 19.8833 95.9848 21.0457 95.9848 22.6278H92.6017L92.5824 21.559C92.5824 21.3537 92.5212 21.1907 92.3987 21.0699C92.2763 20.9491 92.1056 20.8887 91.8865 20.8887C91.6287 20.8887 91.4354 20.9551 91.3065 21.088C91.1776 21.2209 91.1132 21.402 91.1132 21.6315C91.1132 22.1387 91.4225 22.664 92.0411 23.2076L93.9743 24.9466C94.4254 25.3573 94.7991 25.7467 95.0956 26.115C95.392 26.4834 95.6304 26.9181 95.8109 27.4193C95.9913 27.9206 96.0815 28.5154 96.0815 29.2037C96.0815 30.7375 95.7818 31.8999 95.1825 32.691C94.5833 33.482 93.5941 33.8775 92.2151 33.8775ZM100.238 33.7326H97.0288V18.1714H100.238V33.7326Z" fill="white"/>
<path d="M98.7182 17.9018C101.431 17.9018 103.63 15.8409 103.63 13.2987C103.63 10.7565 101.431 8.69565 98.7182 8.69565C96.0053 8.69565 93.806 10.7565 93.806 13.2987C93.806 15.8409 96.0053 17.9018 98.7182 17.9018Z" fill="white"/>
<path d="M98.6718 13.1295C98.7197 13.0813 98.7861 13.0523 98.856 13.0498C98.9269 13.0473 98.9951 13.0714 99.0464 13.1162C99.0987 13.161 99.1288 13.2232 99.1315 13.2896C99.1341 13.3552 99.1084 13.4199 99.0606 13.4681L97.1149 15.4324C97.0671 15.4805 96.9998 15.5095 96.9298 15.512C96.859 15.5145 96.7908 15.4905 96.7394 15.4456C96.6872 15.4008 96.6571 15.3378 96.6544 15.2722C96.6518 15.2058 96.6774 15.1419 96.7253 15.0938L98.6718 13.1295Z" fill="#EE0000"/>
<path d="M99.0881 9.72365L99.1315 13.2963C99.1323 13.3618 99.1058 13.4257 99.0562 13.473C99.0066 13.5203 98.9393 13.5469 98.8693 13.5477C98.7985 13.5485 98.7312 13.5228 98.6807 13.4772C98.6302 13.4307 98.601 13.3676 98.6001 13.3012L98.5567 9.72946C98.5558 9.66307 98.5833 9.6 98.632 9.5527C98.6816 9.50539 98.7489 9.47801 98.8188 9.47718C98.8897 9.47635 98.957 9.50207 99.0075 9.54855C99.0579 9.59419 99.0872 9.65726 99.0881 9.72365Z" fill="#EE0000"/>
<path d="M94.9992 13.0847C95.0338 13.0847 95.0683 13.0971 95.0931 13.1212C95.1179 13.1444 95.132 13.1759 95.132 13.2091C95.132 13.2415 95.1179 13.2739 95.0931 13.2971C95.0683 13.3203 95.0338 13.3336 94.9992 13.3336H94.1871C94.1517 13.3336 94.118 13.3203 94.0932 13.2971C94.0684 13.2739 94.0543 13.2415 94.0543 13.2091C94.0543 13.1759 94.0684 13.1444 94.0932 13.1212C94.118 13.0971 94.1517 13.0847 94.1871 13.0847H94.9992Z" fill="#EE0000"/>
<path d="M103.278 13.0847C103.312 13.0847 103.346 13.0971 103.372 13.1212C103.397 13.1444 103.411 13.1759 103.411 13.2091C103.411 13.2415 103.397 13.2739 103.372 13.2971C103.346 13.3203 103.312 13.3336 103.278 13.3336H102.466C102.43 13.3336 102.397 13.3203 102.372 13.2971C102.347 13.2739 102.333 13.2415 102.333 13.2091C102.333 13.1759 102.347 13.1444 102.372 13.1212C102.397 13.0971 102.43 13.0847 102.466 13.0847H103.278Z" fill="#EE0000"/>
<path d="M98.585 16.7784C98.585 16.7452 98.5992 16.7137 98.624 16.6905C98.6488 16.6664 98.6833 16.6539 98.7179 16.6539C98.7533 16.6539 98.787 16.6664 98.8118 16.6905C98.8374 16.7137 98.8507 16.7452 98.8507 16.7784V17.5386C98.8507 17.5718 98.8374 17.6033 98.8118 17.6274C98.787 17.6506 98.7533 17.6631 98.7179 17.6631C98.6833 17.6631 98.6488 17.6506 98.624 17.6274C98.5992 17.6033 98.585 17.5718 98.585 17.5386V16.7784Z" fill="#EE0000"/>
</svg>
