<?xml version="1.0" encoding="UTF-8" standalone="no"?><!-- Generator: Gravit.io --><svg xmlns="http://www.w3.org/2000/svg" xmlns:xlink="http://www.w3.org/1999/xlink" style="isolation:isolate" viewBox="0 0 1280 800" width="1280pt" height="800pt"><defs><clipPath id="_clipPath_BzUNQ3NVzQ5fYfKIJeUhjjr1or9BWPdY"><rect width="1280" height="800"/></clipPath></defs><g clip-path="url(#_clipPath_BzUNQ3NVzQ5fYfKIJeUhjjr1or9BWPdY)"><g><path d=" M 519.325 490.496 C 530.669 462.549 536.919 431.999 536.919 400 C 536.919 266.988 428.931 159 295.919 159 C 162.907 159 54.919 266.988 54.919 400 C 54.919 533.012 162.907 641 295.919 641 C 364.014 641 425.55 612.698 469.396 567.224 L 223.367 567.224 L 223.367 567.224 Q 206.66 567.224 187.324 561.346 L 187.324 561.346 L 187.324 561.346 Q 167.987 555.468 151.435 542.319 L 151.435 542.319 L 151.435 542.319 Q 134.882 529.17 123.744 507.977 L 123.744 507.977 L 123.744 507.977 Q 112.606 486.783 112.606 456.463 L 112.606 456.463 L 112.606 343.537 L 112.606 343.537 Q 112.606 326.83 118.485 307.493 L 118.485 307.493 L 118.485 307.493 Q 124.363 288.156 137.512 271.604 L 137.512 271.604 L 137.512 271.604 Q 150.661 255.052 171.854 243.914 L 171.854 243.914 L 171.854 243.914 Q 193.047 232.776 223.367 232.776 L 223.367 232.776 L 368.471 232.776 L 368.471 232.776 Q 385.178 232.776 404.514 238.654 L 404.514 238.654 L 404.514 238.654 Q 423.851 244.532 440.403 257.681 L 440.403 257.681 L 440.403 257.681 Q 456.956 270.83 468.094 292.023 L 468.094 292.023 L 468.094 292.023 Q 479.232 313.217 479.232 343.537 L 479.232 343.537 L 479.232 343.537 Q 479.232 360.244 473.353 379.58 L 473.353 379.58 L 473.353 379.58 Q 467.475 398.917 454.326 415.469 L 454.326 415.469 L 454.326 415.469 Q 441.177 432.022 419.984 443.16 L 419.984 443.16 L 419.984 443.16 Q 398.791 454.298 368.471 454.298 L 368.471 454.298 L 223.367 454.298 L 223.367 377.879 L 368.471 377.879 L 368.471 377.879 Q 384.868 377.879 393.84 367.824 L 393.84 367.824 L 393.84 367.824 Q 402.813 357.768 402.813 342.918 L 402.813 342.918 L 402.813 342.918 Q 402.813 327.139 392.758 318.167 L 392.758 318.167 L 392.758 318.167 Q 382.702 309.194 368.471 309.194 L 368.471 309.194 L 223.367 309.194 L 223.367 309.194 Q 206.97 309.194 197.998 319.25 L 197.998 319.25 L 197.998 319.25 Q 189.025 329.305 189.025 344.155 L 189.025 344.155 L 189.025 456.463 L 189.025 456.463 Q 189.025 472.552 199.08 481.524 L 199.08 481.524 L 199.08 481.524 Q 209.136 490.496 223.986 490.496 L 223.986 490.496 L 519.325 490.496 Z " fill-rule="evenodd" fill="rgb(147,178,230)"/><path d=" M 573.374 565.478 L 536.919 565.478 L 555.037 377.965 L 618.56 377.965 L 636.46 565.478 L 600.878 565.478 L 598.259 535.136 L 575.557 535.136 L 573.374 565.478 Z  M 585.38 409.836 L 578.394 505.23 L 595.421 505.23 L 587.126 409.836 L 585.38 409.836 Z  M 647.811 565.478 L 647.811 377.965 L 698.673 377.965 L 698.673 377.965 Q 719.193 377.965 728.47 388.007 L 728.47 388.007 L 728.47 388.007 Q 737.747 398.048 737.747 420.751 L 737.747 420.751 L 737.747 429.046 L 737.747 429.046 Q 737.747 455.896 718.538 461.135 L 718.538 461.135 L 718.538 461.135 Q 730.326 464.191 735.128 475.324 L 735.128 475.324 L 735.128 475.324 Q 739.93 486.456 739.93 504.793 L 739.93 504.793 L 739.93 504.793 Q 739.93 534.699 730.98 550.089 L 730.98 550.089 L 730.98 550.089 Q 722.03 565.478 698.673 565.478 L 698.673 565.478 L 647.811 565.478 Z  M 684.484 448.474 L 692.124 448.474 L 692.124 448.474 Q 696.927 448.474 698.673 444.872 L 698.673 444.872 L 698.673 444.872 Q 700.42 441.27 700.42 434.721 L 700.42 434.721 L 700.42 415.948 L 700.42 415.948 Q 700.42 406.78 692.343 406.78 L 692.343 406.78 L 684.484 406.78 L 684.484 448.474 Z  M 688.195 532.516 L 688.195 532.516 Q 702.821 532.516 702.821 518.545 L 702.821 518.545 L 702.821 495.188 L 702.821 495.188 Q 702.821 486.675 700.31 482.309 L 700.31 482.309 L 700.31 482.309 Q 697.8 477.943 691.47 477.943 L 691.47 477.943 L 684.484 477.943 L 684.484 532.298 L 688.195 532.516 Z  M 796.905 567.224 L 796.905 567.224 Q 771.364 567.224 760.013 554.564 L 760.013 554.564 L 760.013 554.564 Q 748.662 541.903 748.662 513.743 L 748.662 513.743 L 748.662 495.406 L 785.553 495.406 L 785.553 518.764 L 785.553 518.764 Q 785.553 532.734 794.503 532.734 L 794.503 532.734 L 794.503 532.734 Q 799.524 532.734 801.489 529.787 L 801.489 529.787 L 801.489 529.787 Q 803.453 526.84 803.453 519.855 L 803.453 519.855 L 803.453 519.855 Q 803.453 510.687 801.27 504.684 L 801.27 504.684 L 801.27 504.684 Q 799.087 498.681 795.704 494.642 L 795.704 494.642 L 795.704 494.642 Q 792.32 490.604 783.589 482.091 L 783.589 482.091 L 767.435 465.937 L 767.435 465.937 Q 748.662 447.601 748.662 425.335 L 748.662 425.335 L 748.662 425.335 Q 748.662 401.323 759.686 388.771 L 759.686 388.771 L 759.686 388.771 Q 770.709 376.219 791.884 376.219 L 791.884 376.219 L 791.884 376.219 Q 817.206 376.219 828.339 389.644 L 828.339 389.644 L 828.339 389.644 Q 839.471 403.069 839.471 431.665 L 839.471 431.665 L 801.27 431.665 L 801.052 418.786 L 801.052 418.786 Q 801.052 415.075 798.978 412.892 L 798.978 412.892 L 798.978 412.892 Q 796.905 410.709 793.194 410.709 L 793.194 410.709 L 793.194 410.709 Q 788.828 410.709 786.645 413.11 L 786.645 413.11 L 786.645 413.11 Q 784.462 415.512 784.462 419.659 L 784.462 419.659 L 784.462 419.659 Q 784.462 428.827 794.94 438.651 L 794.94 438.651 L 816.769 459.607 L 816.769 459.607 Q 824.409 467.029 829.43 473.686 L 829.43 473.686 L 829.43 473.686 Q 834.451 480.344 837.507 489.403 L 837.507 489.403 L 837.507 489.403 Q 840.563 498.463 840.563 510.905 L 840.563 510.905 L 840.563 510.905 Q 840.563 538.628 830.412 552.926 L 830.412 552.926 L 830.412 552.926 Q 820.262 567.224 796.905 567.224 L 796.905 567.224 Z  M 930.499 565.478 L 853.006 565.478 L 853.006 377.965 L 928.098 377.965 L 928.098 414.202 L 891.207 414.202 L 891.207 450.657 L 926.57 450.657 L 926.57 486.02 L 891.207 486.02 L 891.207 529.023 L 930.499 529.023 L 930.499 565.478 Z  M 979.615 565.478 L 942.942 565.478 L 942.942 377.965 L 981.579 377.965 L 998.824 467.683 L 998.824 377.965 L 1035.061 377.965 L 1035.061 565.478 L 998.388 565.478 L 979.615 471.613 L 979.615 565.478 Z  M 1096.183 567.224 L 1096.183 567.224 Q 1070.642 567.224 1059.291 554.564 L 1059.291 554.564 L 1059.291 554.564 Q 1047.94 541.903 1047.94 513.743 L 1047.94 513.743 L 1047.94 495.406 L 1084.831 495.406 L 1084.831 518.764 L 1084.831 518.764 Q 1084.831 532.734 1093.781 532.734 L 1093.781 532.734 L 1093.781 532.734 Q 1098.802 532.734 1100.767 529.787 L 1100.767 529.787 L 1100.767 529.787 Q 1102.731 526.84 1102.731 519.855 L 1102.731 519.855 L 1102.731 519.855 Q 1102.731 510.687 1100.548 504.684 L 1100.548 504.684 L 1100.548 504.684 Q 1098.365 498.681 1094.982 494.642 L 1094.982 494.642 L 1094.982 494.642 Q 1091.598 490.604 1082.867 482.091 L 1082.867 482.091 L 1066.713 465.937 L 1066.713 465.937 Q 1047.94 447.601 1047.94 425.335 L 1047.94 425.335 L 1047.94 425.335 Q 1047.94 401.323 1058.964 388.771 L 1058.964 388.771 L 1058.964 388.771 Q 1069.988 376.219 1091.162 376.219 L 1091.162 376.219 L 1091.162 376.219 Q 1116.484 376.219 1127.617 389.644 L 1127.617 389.644 L 1127.617 389.644 Q 1138.749 403.069 1138.749 431.665 L 1138.749 431.665 L 1100.548 431.665 L 1100.33 418.786 L 1100.33 418.786 Q 1100.33 415.075 1098.256 412.892 L 1098.256 412.892 L 1098.256 412.892 Q 1096.183 410.709 1092.472 410.709 L 1092.472 410.709 L 1092.472 410.709 Q 1088.106 410.709 1085.923 413.11 L 1085.923 413.11 L 1085.923 413.11 Q 1083.74 415.512 1083.74 419.659 L 1083.74 419.659 L 1083.74 419.659 Q 1083.74 428.827 1094.218 438.651 L 1094.218 438.651 L 1116.047 459.607 L 1116.047 459.607 Q 1123.687 467.029 1128.708 473.686 L 1128.708 473.686 L 1128.708 473.686 Q 1133.729 480.344 1136.785 489.403 L 1136.785 489.403 L 1136.785 489.403 Q 1139.841 498.463 1139.841 510.905 L 1139.841 510.905 L 1139.841 510.905 Q 1139.841 538.628 1129.69 552.926 L 1129.69 552.926 L 1129.69 552.926 Q 1119.54 567.224 1096.183 567.224 L 1096.183 567.224 Z  M 1186.774 565.478 L 1150.537 565.478 L 1150.537 377.965 L 1186.774 377.965 L 1186.774 565.478 Z " fill="rgb(147,178,230)"/><circle vector-effect="non-scaling-stroke" cx="1169.6139817629182" cy="319.24962349586156" r="55.46702935876101" fill="rgb(147,178,230)"/><path d=" M 1169.09 317.21 C 1169.63 316.63 1170.38 316.28 1171.17 316.25 C 1171.97 316.22 1172.74 316.51 1173.32 317.05 C 1173.91 317.59 1174.25 318.34 1174.28 319.14 C 1174.31 319.93 1174.02 320.71 1173.48 321.29 L 1151.51 344.96 C 1150.97 345.54 1150.21 345.89 1149.42 345.92 C 1148.62 345.95 1147.85 345.66 1147.27 345.12 C 1146.68 344.58 1146.34 343.82 1146.31 343.03 C 1146.28 342.23 1146.57 341.46 1147.11 340.88 L 1169.09 317.21 Z " fill="rgb(255,255,255)"/><path d=" M 1173.79 276.17 L 1174.28 319.22 C 1174.29 320.01 1173.99 320.78 1173.43 321.35 C 1172.87 321.92 1172.11 322.24 1171.32 322.25 C 1170.52 322.26 1169.76 321.95 1169.19 321.4 C 1168.62 320.84 1168.29 320.08 1168.28 319.28 L 1167.79 276.24 C 1167.78 275.44 1168.09 274.68 1168.64 274.11 C 1169.2 273.54 1169.96 273.21 1170.75 273.2 C 1171.55 273.19 1172.31 273.5 1172.88 274.06 C 1173.45 274.61 1173.78 275.37 1173.79 276.17 Z " fill="rgb(255,255,255)"/><path d=" M 1127.62 316.67 C 1128.01 316.67 1128.4 316.82 1128.68 317.11 C 1128.96 317.39 1129.12 317.77 1129.12 318.17 C 1129.12 318.56 1128.96 318.95 1128.68 319.23 C 1128.4 319.51 1128.01 319.67 1127.62 319.67 L 1118.45 319.67 C 1118.05 319.67 1117.67 319.51 1117.39 319.23 C 1117.11 318.95 1116.95 318.56 1116.95 318.17 C 1116.95 317.77 1117.11 317.39 1117.39 317.11 C 1117.67 316.82 1118.05 316.67 1118.45 316.67 L 1127.62 316.67 Z " fill="rgb(255,255,255)"/><path d=" M 1221.1 316.67 C 1221.49 316.67 1221.87 316.82 1222.16 317.11 C 1222.44 317.39 1222.6 317.77 1222.6 318.17 C 1222.6 318.56 1222.44 318.95 1222.16 319.23 C 1221.87 319.51 1221.49 319.67 1221.1 319.67 L 1211.93 319.67 C 1211.53 319.67 1211.15 319.51 1210.87 319.23 C 1210.59 318.95 1210.43 318.56 1210.43 318.17 C 1210.43 317.77 1210.59 317.39 1210.87 317.11 C 1211.15 316.82 1211.53 316.67 1211.93 316.67 L 1221.1 316.67 Z " fill="rgb(255,255,255)"/><path d=" M 1168.11 361.18 C 1168.11 360.78 1168.27 360.4 1168.55 360.12 C 1168.83 359.83 1169.22 359.68 1169.61 359.68 C 1170.01 359.68 1170.39 359.83 1170.67 360.12 C 1170.96 360.4 1171.11 360.78 1171.11 361.18 L 1171.11 370.34 C 1171.11 370.74 1170.96 371.12 1170.67 371.41 C 1170.39 371.69 1170.01 371.84 1169.61 371.84 C 1169.22 371.84 1168.83 371.69 1168.55 371.41 C 1168.27 371.12 1168.11 370.74 1168.11 370.34 L 1168.11 361.18 Z " fill="rgb(255,255,255)"/></g></g></svg>